<svg version="1.1" viewBox="0 0 4.2333 4.4979" xmlns="http://www.w3.org/2000/svg" xmlns:cc="http://creativecommons.org/ns#" xmlns:dc="http://purl.org/dc/elements/1.1/" xmlns:rdf="http://www.w3.org/1999/02/22-rdf-syntax-ns#">
 <g transform="translate(-85.297 -132.73)">
  <g transform="matrix(.26458 0 0 .26458 85.297 132.73)">
   <path transform="translate(.875 -.65624)" d="m3.125 0.65625v2h-1v2h-1v2h-1v2h-1v2h6v2h-1v2h-1v2h1v-1h1v-1h1v-1h1v-1h1v-1h1v-1h1v-1h1v-1h1v-1h1v-1h1v-1h-3v-1h1v-1h1v-1h1v-1h1v-1zm0 16h-1v1h1zm1-14h7v1h-1v1h-1v1h-1v1 1h1 1v1h-1v1h-1v1h-1v-2h-1-1-1-1-1v-1-1h1v-2h1z"></path>
   <path d="m9 7h1v-1h-1z"></path>
   <path d="m5 7h-1v1h1z"></path>
   <path d="m6 7v-1h-1v1z"></path>
   <path d="m7 7h-1v1h1z"></path>
   <path d="m8 7v-1h-1v1z"></path>
   <path d="m9 8v-1h-1v1z"></path>
   <path d="m4 5.0313h-1.4375v1.9688h1.4375z"></path>
   <path d="m10.331 9.1436v-1.1436h-1.3315v1.1436z"></path>
  </g>
  <path transform="matrix(.26458 0 0 .26458 85.297 132.73)" d="m11.273 8.3125v-1.5312h-1.2734v1.5312z"></path>
  <path d="m87.728 135.42v-0.31212h-0.3762v0.31212z"></path>
 </g>
</svg>